<svg id="Layer_1" fill='white' data-name="Layer 1" xmlns="http://www.w3.org/2000/svg" viewBox="0 0 512 512"><title>cancer-glyph</title><path d="M512,109.79v43.55Q385.9,95.73,268.2,95.73q-77,0-125.56,20.28,30.91,15.42,46.24,39.22T204.2,211q0,41.93-30.24,72t-72.54,30q-42,0-71.73-29.8T0,211.36Q0,144.18,81.76,99.75T286.91,55.32Q393.76,55.32,512,109.79ZM0,402.48V358.93q126.1,57.34,243.8,57.34,77,0,125.29-20-30.65-15.69-46-39.36T307.8,301.3q0-41.92,30.24-72t72.54-30q41.76,0,71.59,29.8T512,300.91q0,66.92-81.76,111.34T225.08,456.68Q118.51,456.68,0,402.48ZM177.36,210.71q0-30.8-22.51-52.69t-53.69-21.89q-31.19,0-52.75,21.48T26.85,210.17q0,31.61,21.83,53.77t53,22.16q31.46,0,53.56-22.16T177.36,210.71Zm157.29,90.85q0,30.53,22.37,52.56t53.56,22q31.18,0,52.88-21.48t21.69-52.56q0-31.62-21.83-53.77t-53-22.16q-31.46,0-53.56,22T334.64,301.56Z"/></svg>