<svg id="Layer_1" fill='white' data-name="Layer 1" xmlns="http://www.w3.org/2000/svg" viewBox="0 0 512 512"><title>capricornus-glyph</title><path d="M97.82,302.62v-14q0-38.76-13.61-109.56T59,86.2Q42.57,55,7.55,55H0V21.83H29.91q41.77,0,57.94,32.89Q107,94.08,122.61,186,145.25,84.64,198.06,21.83l52.55-10.24q19.67,43.93,32.34,131.77l7.27,48.77q3.5,25.6,4.85,36.38,4.85,43.66,12.13,66Q345.73,221,413.64,221q41,0,69.66,28.16T512,317.44q0,43.12-29.1,73.16t-70.87,30q-56.86,0-99.44-44.19Q282.14,456.22,259,478.31t-76.53,22.1H146.32V467.27h17q51.2,0,70.47-20.75t49.18-108.6q-13.48-23.7-17.65-39.45t-10.91-69.33l-10-76.2q-10-75.39-23.17-103.67-34.23,40.12-59,108.91T137.43,281.08v21.54Zm223.66,40.15q43.38,48,87.58,48,29.91,0,49.85-20.75t19.94-52q0-27.75-19-47.29t-46.21-19.54Q354.89,251.15,321.48,342.77Z"/></svg>