<svg id="Layer_1" fill='white' data-name="Layer 1" xmlns="http://www.w3.org/2000/svg" viewBox="0 0 512 512"><title>leo-glyph</title><path d="M456.19,471.76Q412.41,512,372.17,512q-34.93,0-58.59-23.17t-23.67-57.1q0-45.32,47.58-146.36l24.3-51.66q28.09-60,28.09-97.24,0-47.6-27.71-76.47T288.9,31.13q-42.78,0-69.22,25.71t-26.45,67.49q0,38.5,24.8,90.16L227.91,235q24.54,50.91,24.55,75,0,38.75-29.23,67.36t-69,28.62q-41,0-69.73-28.85T55.81,307q0-39.73,28.35-68.71t67.57-29q14.17,0,31.38,5.31Q155.77,162.23,155.78,122q0-52.39,37.84-87.19t95-34.8q62.76,0,100.73,36.82t38,97.82Q427.34,165,421,187t-29.87,72.64l-17.46,38Q327.12,398.37,327.12,428q0,21.76,13,35.81t33.28,14q26.57,0,60.74-30.12ZM83.9,307.25q0,29.86,19.87,50.24t49,20.37q28.34,0,48.47-20.5t20.12-49.61q0-29.61-20-50t-49.1-20.37q-28.35,0-48.34,20.5T83.9,307.25Z"/></svg>