<svg id="Layer_1" fill='white' data-name="Layer 1" xmlns="http://www.w3.org/2000/svg" viewBox="0 0 512 512"><title>scorpio-glyph</title><path d="M56,401.56v-281Q56,50.29,22.75,7.72H65.06Q87.42,41.78,95.4,85.16,114,38.85,141.7,7.72L179.76,0q26.61,31.14,33.8,89.41,14.63-41.78,47.63-81.7L300,0q31.66,43.11,31.67,101.92V347q0,38.59,2.66,52.29a47.94,47.94,0,0,0,12,23.82q17,17.83,56.42,17.83H427V401.56l62.27,56.15L427,512V473.68H390.79q-51.63,0-75-27.14t-23.42-86.75V122.41q0-59.87-17.3-86-44.18,50.83-61.47,127.2v237.9H174.17v-265q0-71.58-17.3-100.06Q114.56,84.09,95.4,154.88V401.56Z"/></svg>