<svg id="Layer_1" fill='white' data-name="Layer 1" xmlns="http://www.w3.org/2000/svg" viewBox="0 0 512 512"><title>virgo-glyph</title><path d="M117.9,155.86V405.67H78.06V116.29q0-60-32.84-109h42Q109.56,38,117.9,86.14q20.19-49.8,46.84-78.87l39-7.27q26.91,34.46,33.92,91.52,13.73-43.07,48.72-84.25L324.91,0q32.3,45,32.3,99.33v75.91q16.15-45.76,34.19-71.61l32.84-12.11q42.53,66,42.53,138.63a237.65,237.65,0,0,1-25.44,108.21Q415.9,389,365,432.59q4.85,35,41.19,79.41H359.37q-17-21.54-30.15-57.07-37.42,21.26-91.53,29.88V450.63q51.14-10.5,83.72-29.88a336.16,336.16,0,0,1-4-52V126.52q0-59.22-17.23-89.37-42.27,45.49-62.45,128.13V405.67H197.59V140q0-74-17.5-102.83Q138.9,85.07,117.9,155.86ZM357.22,395.17q35-35.53,52.36-76.31a218.63,218.63,0,0,0,17.36-86.55q0-47.91-21-92.87-29.61,36.61-48.72,97.71Z"/></svg>